<svg width="14" height="12" viewBox="0 0 14 12" fill="none" xmlns="http://www.w3.org/2000/svg">
<path d="M7.00008 11.9998C6.91234 12.0003 6.82536 11.9835 6.74414 11.9503C6.66291 11.9171 6.58904 11.8682 6.52674 11.8064L1.34674 6.61977C0.696985 5.96322 0.33252 5.07681 0.33252 4.1531C0.33252 3.22939 0.696985 2.34298 1.34674 1.68643C2.00159 1.03344 2.88863 0.666748 3.81341 0.666748C4.73819 0.666748 5.62524 1.03344 6.28008 1.68643L7.00008 2.40643L7.72008 1.68643C8.37492 1.03344 9.26196 0.666748 10.1867 0.666748C11.1115 0.666748 11.9986 1.03344 12.6534 1.68643C13.3032 2.34298 13.6676 3.22939 13.6676 4.1531C13.6676 5.07681 13.3032 5.96322 12.6534 6.61977L7.47341 11.8064C7.41112 11.8682 7.33724 11.9171 7.25601 11.9503C7.17479 11.9835 7.08781 12.0003 7.00008 11.9998Z" fill="#F25822"/>
</svg>
