<svg width="34" height="34" viewBox="0 0 34 34" fill="none" xmlns="http://www.w3.org/2000/svg">
<path d="M18.6667 0.333344C18.2246 0.333344 17.8007 0.508938 17.4882 0.821499C17.1756 1.13406 17 1.55798 17 2.00001V15.3333C17 15.7754 17.1756 16.1993 17.4882 16.5119C17.8007 16.8244 18.2246 17 18.6667 17H32C32.442 17 32.866 16.8244 33.1785 16.5119C33.4911 16.1993 33.6667 15.7754 33.6667 15.3333C33.6667 11.3551 32.0863 7.53979 29.2733 4.72674C26.4602 1.9137 22.6449 0.333344 18.6667 0.333344V0.333344ZM20.3333 13.6667V3.78334C22.827 4.1427 25.1374 5.29964 26.9189 7.08115C28.7004 8.86266 29.8573 11.173 30.2167 13.6667H20.3333Z" fill="#FFC700"/>
<path d="M31.7 20.4332C31.4932 20.3593 31.2739 20.327 31.0545 20.3381C30.8352 20.3493 30.6202 20.4036 30.422 20.4981C30.2238 20.5926 30.0461 20.7253 29.8993 20.8886C29.7526 21.052 29.6395 21.2427 29.5667 21.4499C28.8156 23.5731 27.5389 25.4715 25.8558 26.9679C24.1727 28.4643 22.1379 29.5099 19.9414 30.0073C17.7449 30.5047 15.4582 30.4376 13.2946 29.8123C11.131 29.187 9.16108 28.0238 7.56858 26.4313C5.97608 24.8388 4.81291 22.8689 4.18759 20.7053C3.56227 18.5417 3.49518 16.255 3.99258 14.0585C4.48998 11.862 5.53566 9.82724 7.03205 8.14411C8.52845 6.46099 10.4268 5.18433 12.55 4.43324C12.9677 4.28737 13.3104 3.98154 13.5026 3.58303C13.6948 3.18451 13.7209 2.72596 13.575 2.30824C13.4291 1.89053 13.1233 1.54787 12.7248 1.35564C12.3263 1.16342 11.8677 1.13737 11.45 1.28324C8.79507 2.22121 6.42106 3.81652 4.54953 5.92028C2.678 8.02404 1.36998 10.5677 0.747537 13.3138C0.125098 16.0598 0.208538 18.9189 0.990068 21.624C1.7716 24.3291 3.22574 26.7921 5.21678 28.7831C7.20781 30.7742 9.67082 32.2283 12.3759 33.0098C15.081 33.7914 17.9401 33.8748 20.6862 33.2524C23.4322 32.6299 25.9759 31.3219 28.0796 29.4504C30.1834 27.5789 31.7787 25.2048 32.7167 22.5499C32.8608 22.1343 32.8348 21.6786 32.6444 21.2821C32.4539 20.8856 32.1145 20.5805 31.7 20.4332Z" fill="#FFC700"/>
</svg>
