<svg width="13" height="13" viewBox="0 0 13 13" fill="none" xmlns="http://www.w3.org/2000/svg">
<path d="M10.3601 2.5344C9.38035 1.59553 8.08722 1.01152 6.70365 0.883055C5.32009 0.754592 3.93279 1.08972 2.78095 1.83067C1.6291 2.57162 0.784882 3.67196 0.393837 4.94198C0.00279184 6.212 0.0894254 7.57212 0.638802 8.78785C0.696061 8.90084 0.714849 9.02803 0.692544 9.15168L0.167067 11.5564C0.146822 11.6486 0.150956 11.7442 0.179098 11.8345C0.20724 11.9248 0.258507 12.007 0.328293 12.0737C0.385501 12.1278 0.453616 12.1703 0.528532 12.1986C0.603448 12.227 0.683615 12.2406 0.7642 12.2386H0.883626L3.43935 11.7497C3.56925 11.7348 3.70097 11.7525 3.82152 11.8009C5.09849 12.3239 6.52712 12.4064 7.86111 12.0341C9.19511 11.6618 10.3509 10.8581 11.1291 9.76146C11.9074 8.66485 12.2594 7.34409 12.1245 6.02688C11.9896 4.70967 11.3761 3.47855 10.39 2.54577L10.3601 2.5344ZM3.74986 7.12215C3.63176 7.12215 3.51631 7.08881 3.41811 7.02635C3.31992 6.96388 3.24338 6.87509 3.19818 6.77121C3.15299 6.66733 3.14116 6.55303 3.1642 6.44275C3.18724 6.33247 3.24412 6.23118 3.32763 6.15167C3.41114 6.07217 3.51754 6.01802 3.63337 5.99609C3.7492 5.97415 3.86926 5.98541 3.97838 6.02844C4.08749 6.07147 4.18075 6.14433 4.24636 6.23782C4.31197 6.33131 4.347 6.44122 4.347 6.55366C4.347 6.70443 4.28408 6.84903 4.1721 6.95565C4.06012 7.06226 3.90823 7.12215 3.74986 7.12215V7.12215ZM6.13839 7.12215C6.02029 7.12215 5.90484 7.08881 5.80664 7.02635C5.70845 6.96388 5.63191 6.87509 5.58671 6.77121C5.54152 6.66733 5.52969 6.55303 5.55273 6.44275C5.57577 6.33247 5.63265 6.23118 5.71616 6.15167C5.79967 6.07217 5.90607 6.01802 6.0219 5.99609C6.13773 5.97415 6.25779 5.98541 6.36691 6.02844C6.47602 6.07147 6.56928 6.14433 6.63489 6.23782C6.7005 6.33131 6.73553 6.44122 6.73553 6.55366C6.73553 6.70443 6.67261 6.84903 6.56063 6.95565C6.44865 7.06226 6.29676 7.12215 6.13839 7.12215ZM8.52692 7.12215C8.40882 7.12215 8.29337 7.08881 8.19517 7.02635C8.09698 6.96388 8.02044 6.87509 7.97524 6.77121C7.93005 6.66733 7.91822 6.55303 7.94126 6.44275C7.9643 6.33247 8.02118 6.23118 8.10469 6.15167C8.1882 6.07217 8.2946 6.01802 8.41043 5.99609C8.52626 5.97415 8.64632 5.98541 8.75544 6.02844C8.86455 6.07147 8.95781 6.14433 9.02342 6.23782C9.08904 6.33131 9.12406 6.44122 9.12406 6.55366C9.12406 6.70443 9.06114 6.84903 8.94916 6.95565C8.83718 7.06226 8.68529 7.12215 8.52692 7.12215Z" fill="#F25822"/>
</svg>
