<svg width="10" height="12" viewBox="0 0 10 12" fill="none" xmlns="http://www.w3.org/2000/svg">
<path d="M4.99992 5.33333C5.52734 5.33333 6.04291 5.17694 6.48144 4.88392C6.91997 4.5909 7.26176 4.17443 7.4636 3.68716C7.66543 3.19989 7.71824 2.66371 7.61535 2.14643C7.51245 1.62914 7.25848 1.15399 6.88554 0.78105C6.5126 0.40811 6.03744 0.154134 5.52016 0.0512404C5.00288 -0.0516535 4.4667 0.00115542 3.97943 0.202989C3.49216 0.404823 3.07568 0.746616 2.78267 1.18515C2.48965 1.62368 2.33325 2.13925 2.33325 2.66667C2.33325 3.37391 2.6142 4.05219 3.1143 4.55229C3.6144 5.05238 4.29267 5.33333 4.99992 5.33333Z" fill="#F25822"/>
<path d="M8.99992 11.9998C9.17673 11.9998 9.3463 11.9296 9.47132 11.8046C9.59635 11.6796 9.66658 11.51 9.66658 11.3332C9.66658 10.0955 9.17492 8.90851 8.29975 8.03334C7.42458 7.15817 6.2376 6.6665 4.99992 6.6665C3.76224 6.6665 2.57526 7.15817 1.70009 8.03334C0.824917 8.90851 0.333252 10.0955 0.333252 11.3332C0.333252 11.51 0.40349 11.6796 0.528514 11.8046C0.653538 11.9296 0.823108 11.9998 0.999919 11.9998H8.99992Z" fill="#F25822"/>
</svg>
